<svg width="59" height="22" viewBox="0 0 59 22" fill="none" xmlns="http://www.w3.org/2000/svg">
<path fill-rule="evenodd" clip-rule="evenodd" d="M30.8343 18.4305V13.0138L24.6157 10.5746L27.8795 7.36494L23.602 3.52277L22.3888 5.8745L22.4353 3.61361L17.0144 5.36647L17.154 8.31371L18.0747 8.07147L19.0319 18.4709L22.8541 17.9023L22.8475 14.4302L30.8343 18.4305Z" fill="#0B0000"/>
<path fill-rule="evenodd" clip-rule="evenodd" d="M18.0346 6.123L21.3284 5.13049L21.5311 8.56557L23.9574 5.11703L26.3272 7.40148L23.0135 10.9375L29.8337 13.6728V16.8185L21.91 12.8048L21.9233 17.0103L19.8726 17.2929L18.9985 6.77233L18.0745 7.01457L18.0346 6.123Z" fill="white"/>
<path fill-rule="evenodd" clip-rule="evenodd" d="M43.0085 4.04056H39.4189L39.3159 4.63606H35.5402L33.7753 15.5604L38.0828 16.2467L38.3188 14.6789L39.4455 16.7816L40.1302 15.4392L40.3828 17.6429L45.2653 18.5143L43.0085 4.04056Z" fill="#0B0000"/>
<path fill-rule="evenodd" clip-rule="evenodd" d="M40.3631 5.05038H42.1911L44.0424 17.2195L41.3436 16.8023L40.6256 11.9878L39.6119 14.6424L38.0897 11.325H38.0731L37.4715 15.1706L34.9421 14.7231L36.4478 5.61224H39.007L39.6452 9.14489L40.3631 5.05038Z" fill="white"/>
<path fill-rule="evenodd" clip-rule="evenodd" d="M47.5789 5.03656L52.9799 6.23766L53.3821 8.25632L53.8175 6.43616L58.4141 7.56325L54.0003 21.0243L50.6134 19.9443L50.5869 18.5952L47.3363 18.1343L48.4331 8.25632L47.6188 8.07127L47.5789 5.03656Z" fill="#0B0000"/>
<path fill-rule="evenodd" clip-rule="evenodd" d="M48.5396 6.29807L52.0594 7.01469L53.2459 12.7006L54.4591 7.60346L57.1379 8.2057L53.3656 19.7726L51.491 19.204L51.3281 12.2127L50.3842 17.6059L48.3401 17.2796L49.2575 7.48571L48.4864 7.27711L48.5396 6.29807Z" fill="white"/>
<path fill-rule="evenodd" clip-rule="evenodd" d="M47.0604 16.5797C45.8938 17.0238 44.6541 16.9733 43.657 16.435C42.733 15.9405 42.0882 15.0825 41.8389 14.0227C41.3404 11.9099 42.7197 9.49758 44.9133 8.64638C46.0932 8.19555 47.3429 8.24938 48.3467 8.79105C49.2607 9.28226 49.8988 10.12 50.1415 11.1495C50.65 13.2927 49.2707 15.7285 47.0604 16.5797Z" fill="#0B0000"/>
<path fill-rule="evenodd" clip-rule="evenodd" d="M49.2866 11.3451C48.8878 9.6494 47.0996 8.7982 45.265 9.498C43.4868 10.1877 42.3202 12.1357 42.7223 13.8314C43.1345 15.5809 44.906 16.4287 46.7407 15.7289C48.5321 15.0426 49.6988 13.0811 49.2866 11.3451Z" fill="white"/>
<path fill-rule="evenodd" clip-rule="evenodd" d="M47.9541 11.644C47.9175 12.5793 47.1132 13.2858 46.1293 13.2454C45.1621 13.2051 44.4176 12.438 44.4542 11.5026C44.4908 10.6245 45.2918 9.918 46.2756 9.95837C47.2461 9.99875 47.9906 10.7658 47.9541 11.644Z" fill="#0B0000"/>
<path fill-rule="evenodd" clip-rule="evenodd" d="M46.704 9.99877C46.1157 9.97522 45.6238 10.3857 45.6005 10.9139C45.5806 11.4421 46.0393 11.8929 46.6275 11.9165C47.2158 11.94 47.7077 11.5296 47.731 11.0014C47.7509 10.4732 47.2923 10.0223 46.704 9.99877Z" fill="white"/>
<path fill-rule="evenodd" clip-rule="evenodd" d="M17.2831 17.7577C16.0899 18.2691 14.797 18.2691 13.7367 17.7544C12.7562 17.2766 12.0483 16.4153 11.7458 15.3219C11.1409 13.1451 12.4737 10.5781 14.7205 9.59901C15.927 9.08425 17.2299 9.08425 18.2968 9.60574C19.2673 10.0768 19.9653 10.9212 20.2611 11.981C20.8793 14.1881 19.5432 16.7821 17.2831 17.7577Z" fill="#0B0000"/>
<path fill-rule="evenodd" clip-rule="evenodd" d="M19.407 12.1155C18.9151 10.3525 17.0073 9.53832 15.1128 10.3525C13.2748 11.1532 12.1348 13.2459 12.6267 15.0089C13.1319 16.829 15.0264 17.6399 16.9209 16.829C18.7722 16.0283 19.9122 13.9188 19.407 12.1155Z" fill="white"/>
<path fill-rule="evenodd" clip-rule="evenodd" d="M18.1244 12.4517C18.1244 13.387 17.35 14.1238 16.3662 14.1238C15.399 14.1238 14.6245 13.387 14.6245 12.4517C14.6245 11.5736 15.399 10.8334 16.3828 10.8334C17.35 10.8334 18.1244 11.5702 18.1244 12.4517Z" fill="#0B0000"/>
<path fill-rule="evenodd" clip-rule="evenodd" d="M16.8112 10.8568C16.2229 10.8568 15.7443 11.2875 15.7443 11.8157C15.7443 12.3439 16.2196 12.7745 16.8112 12.7745C17.3995 12.7745 17.8781 12.3439 17.8781 11.8157C17.8781 11.2875 17.3995 10.8568 16.8112 10.8568Z" fill="white"/>
<path fill-rule="evenodd" clip-rule="evenodd" d="M10.6989 14.5078C13.2648 12.6001 14.4879 9.71681 13.5606 7.55348C13.1552 6.60808 12.4439 5.82753 11.5731 5.33632C10.9615 4.92586 10.2336 4.6668 9.46918 4.57933C7.59462 4.24625 5.34449 4.58942 3.13091 5.54155C2.31661 5.89145 1.55549 6.29518 0.870806 6.73592L0 7.29106L0.521819 8.18599L2.14378 10.9616C2.14378 10.9616 2.64233 11.8162 2.64565 11.8128L3.52643 11.3788L3.64941 11.3183L7.68104 20.4325L8.06991 21.3073L8.97395 21.0146L11.1576 20.308L12.1148 19.9985L11.8622 19.0161L10.6989 14.5078Z" fill="black"/>
<path fill-rule="evenodd" clip-rule="evenodd" d="M12.5861 7.98028C12.2637 7.23002 11.7087 6.64124 10.9841 6.22742C10.459 5.87415 9.85074 5.6992 9.28239 5.63528C7.66708 5.3493 5.65624 5.61846 3.53906 6.52685C2.78458 6.84984 2.07996 7.21992 1.43184 7.63711L3.0538 10.4128C3.46926 10.2075 3.91796 9.98885 4.16059 9.85764L8.64424 19.9879L10.8279 19.2814L9.48181 14.0396C12.0643 12.4348 13.3672 9.80044 12.5861 7.98028Z" fill="white"/>
<path fill-rule="evenodd" clip-rule="evenodd" d="M35.5239 10.6453L33.9884 9.24567L34.7429 8.43484L35.4209 7.70476L34.796 6.92757C33.5762 5.40685 31.6252 4.79789 29.5779 5.29919C26.7295 5.99226 25.1241 8.47521 25.7589 11.197C26.0149 12.2938 26.6929 13.2325 27.6734 13.8415C28.8433 14.5716 30.3157 14.7701 31.8147 14.4033C33.3968 14.0164 34.5601 13.3671 35.5804 12.3006L36.3981 11.446L35.5239 10.6453Z" fill="#0B0000"/>
<path fill-rule="evenodd" clip-rule="evenodd" d="M33.1632 9.98241C32.7777 10.4433 32.3356 10.8639 31.5512 11.0557C31.2887 11.1196 30.933 11.1801 30.707 11.1398L34.0075 7.58357C33.0768 6.42284 31.5479 5.88454 29.8163 6.30845C27.6625 6.8333 26.2068 8.6501 26.7452 10.9648C27.1773 12.8254 29.2114 13.9659 31.5712 13.3906C33.0004 13.0407 33.9942 12.4822 34.8849 11.5502L33.1632 9.98241Z" fill="white"/>
<path fill-rule="evenodd" clip-rule="evenodd" d="M28.0087 4.71356L32.0503 0L34.2871 3.38125L29.1786 6.16027L28.0087 4.71356Z" fill="#0B0000"/>
<path fill-rule="evenodd" clip-rule="evenodd" d="M31.8772 1.5004L33.0604 3.12878L29.6802 4.82445L29.4442 4.46446L31.8772 1.5004Z" fill="white"/>
<path fill-rule="evenodd" clip-rule="evenodd" d="M29.372 10.0359C29.1294 9.58844 29.1759 9.01313 29.5382 8.61276C29.8872 8.22585 30.419 8.11482 30.8743 8.29314L29.372 10.0359ZM29.5382 8.61276C29.1792 9.01313 29.1294 9.58844 29.372 10.0359L30.8743 8.29314C30.419 8.11482 29.8839 8.22585 29.5382 8.61276ZM31.7086 8.03071C30.9375 7.32082 29.7476 7.37801 29.0463 8.15856C28.345 8.93911 28.4015 10.1436 29.1726 10.8535C29.2357 10.914 29.3055 10.9645 29.3753 11.0116L31.8448 8.16529C31.7983 8.11819 31.7551 8.07445 31.7086 8.03071ZM29.372 10.0359C29.1294 9.58844 29.1759 9.01313 29.5382 8.61276C29.8872 8.22585 30.419 8.11482 30.8743 8.29314L29.372 10.0359Z" fill="black"/>
<path fill-rule="evenodd" clip-rule="evenodd" d="M10.8886 9.71314C10.6958 8.63988 9.31648 8.03765 7.93382 8.78792L8.27949 10.0193L8.82457 11.8361L9.07385 12.6637C10.1108 12.0009 11.1545 11.2002 10.8886 9.71314ZM9.5159 11.355C9.36633 10.857 9.04393 9.78379 9.04393 9.78379C9.04726 9.79052 8.97746 9.55164 8.90434 9.28585C9.19682 9.23202 9.47601 9.25894 9.70867 9.37333C9.83829 9.43725 10.061 9.58192 10.1075 9.85781C10.2172 10.4735 10.0078 10.9142 9.5159 11.355Z" fill="black"/>
<path fill-rule="evenodd" clip-rule="evenodd" d="M11.4809 21.9632C11.4842 21.9733 11.4875 21.98 11.4908 21.9901C11.4908 21.9935 11.4942 21.9968 11.4942 22.0002C11.4908 21.9867 11.4842 21.9767 11.4809 21.9632Z" fill="black"/>
<path fill-rule="evenodd" clip-rule="evenodd" d="M54.9734 19.8033H55.9672V19.9513H55.555V21.0447H55.3855V19.9513H54.9734V19.8033Z" fill="black"/>
<path fill-rule="evenodd" clip-rule="evenodd" d="M56.1143 21.0447V19.8033H56.3537L56.706 20.853L57.0549 19.8033H57.2909V21.0447H57.1347V20.3113C57.1347 20.2844 57.1347 20.244 57.138 20.1868C57.138 20.1296 57.138 20.0657 57.138 19.9984L56.7891 21.0447H56.6262L56.2739 19.9984V20.0354C56.2739 20.0657 56.2739 20.1128 56.2772 20.1733C56.2772 20.2339 56.2805 20.281 56.2805 20.3113V21.0447H56.1143Z" fill="black"/>
</svg>
